<svg width="200" height="200" viewBox="0 0 200 200" xmlns="http://www.w3.org/2000/svg">
  <defs>
    <linearGradient id="blueGradient" x1="0%" y1="0%" x2="100%" y2="100%">
      <stop offset="0%" style="stop-color:#1e40af;stop-opacity:1" />
      <stop offset="100%" style="stop-color:#3b82f6;stop-opacity:1" />
    </linearGradient>
    <linearGradient id="silverGradient" x1="0%" y1="0%" x2="100%" y2="100%">
      <stop offset="0%" style="stop-color:#e5e7eb;stop-opacity:1" />
      <stop offset="100%" style="stop-color:#9ca3af;stop-opacity:1" />
    </linearGradient>
  </defs>
  
  <!-- Outer Gear -->
  <g transform="translate(100,100)">
    <path d="M 0,-40 L 5,-35 L 5,-25 L 15,-25 L 15,-15 L 25,-15 L 25,-5 L 35,-5 L 40,0 L 35,5 L 25,5 L 25,15 L 15,15 L 15,25 L 5,25 L 5,35 L 0,40 L -5,35 L -5,25 L -15,25 L -15,15 L -25,15 L -25,5 L -35,5 L -40,0 L -35,-5 L -25,-5 L -25,-15 L -15,-15 L -15,-25 L -5,-25 L -5,-35 Z" 
          fill="url(#silverGradient)" 
          stroke="#374151" 
          stroke-width="2"/>
    
    <!-- Inner Circle -->
    <circle r="20" fill="url(#blueGradient)" stroke="#1e40af" stroke-width="2"/>
    
    <!-- Wrench Symbol -->
    <g transform="rotate(-45)">
      <rect x="-3" y="-15" width="6" height="20" fill="#ffffff" rx="1"/>
      <path d="M -3,-15 L -6,-18 L -6,-22 L -2,-26 L 2,-26 L 6,-22 L 6,-18 L 3,-15" 
            fill="#ffffff" 
            stroke="#ffffff" 
            stroke-width="1"/>
    </g>
    
    <!-- Text -->
    <text y="55" text-anchor="middle" font-family="Arial, sans-serif" font-size="12" font-weight="bold" fill="#1e40af">CLATECH</text>
  </g>
</svg>